# xmcd
#
# Track frame offsets:
#	150
#	13398
#	43017
#
# Disc length: 922 seconds
#
# Revision: 1
# Processed by: cddbd v1.5.2PL0 Copyright (c) Steve Scherf et al.
# Submitted via: audiograbber 1.83.01
#
DISCID=21039803
DTITLE=NodBat - Elet‰‰n [CDS)
DYEAR=2005
DGENRE=Hip-Hop
TTITLE0=Elet‰‰n
TTITLE1=Surullist' Mut Totta
TTITLE2=Elet‰‰n (Video)
EXTD=TR.
EXTT0=
EXTT1=
EXTT2=
PLAYORDER=
